<?xml version="1.0" encoding="iso-8859-1"?>
<!-- Generator: Adobe Illustrator 19.0.0, SVG Export Plug-In . SVG Version: 6.00 Build 0)  -->
<svg version="1.1" id="Layer_1" xmlns="http://www.w3.org/2000/svg" xmlns:xlink="http://www.w3.org/1999/xlink" x="0px" y="0px"
	 viewBox="0 0 512 512" style="enable-background:new 0 0 512 512;" xml:space="preserve">
<g>
	<g>
		<path d="M213.463,100.455c-0.843-4.559-5.221-7.574-9.781-6.73l-27.103,5.01l26.655-42.9c1.744-2.806,1.679-6.374-0.163-9.115
			c-1.844-2.741-5.124-4.145-8.379-3.591l-45.319,7.736c-4.57,0.78-7.643,5.118-6.863,9.688s5.112,7.637,9.688,6.863l26.932-4.597
			l-26.841,43.194c-1.754,2.824-1.677,6.417,0.197,9.163c1.582,2.318,4.192,3.664,6.933,3.664c0.506,0,1.018-0.046,1.527-0.14
			l45.788-8.463C211.293,109.393,214.306,105.014,213.463,100.455z"/>
	</g>
</g>
<g>
	<g>
		<path d="M253.92,35.041c-20.042,0-36.348,16.306-36.348,36.348c0,20.042,16.306,36.348,36.348,36.348s36.348-16.306,36.348-36.348
			C290.267,51.346,273.962,35.041,253.92,35.041z M253.92,90.946c-10.784,0-19.557-8.773-19.557-19.557
			c0-10.784,8.773-19.557,19.557-19.557s19.557,8.773,19.557,19.557C273.477,82.172,264.704,90.946,253.92,90.946z"/>
	</g>
</g>
<g>
	<g>
		<path d="M332.762,44.212c-20.042,0-36.348,16.306-36.348,36.348c0,20.042,16.306,36.348,36.348,36.348
			c20.042,0,36.348-16.306,36.348-36.348C369.109,60.517,352.803,44.212,332.762,44.212z M332.762,100.117
			c-10.784,0-19.557-8.773-19.557-19.557c0-10.784,8.773-19.557,19.557-19.557c10.784,0,19.557,8.773,19.557,19.557
			C352.319,91.343,343.545,100.117,332.762,100.117z"/>
	</g>
</g>
<g>
	<g>
		<path d="M508.516,94.682C430.165,38.176,341.383,8.308,251.765,8.308c-43.895,0-87.579,7.047-129.837,20.946
			C80.951,42.733,41.149,62.702,3.627,88.605c-3.273,2.259-4.512,6.506-2.966,10.17l41.156,97.589
			c0.982,2.328,2.96,4.09,5.385,4.798c2.426,0.707,5.042,0.284,7.119-1.151c4.523-3.123,9.076-6.118,13.652-9.014v70.6
			c0,4.636,3.759,8.395,8.395,8.395s8.395-3.759,8.395-8.395v-80.654c4.575-2.585,9.188-5.065,13.824-7.437
			c0.058-0.03,0.116-0.059,0.175-0.09c2.3-1.175,4.606-2.324,6.918-3.443c0.01-0.004,0.02-0.01,0.031-0.015
			c2.342-1.135,4.688-2.241,7.036-3.318v320.26H84.763V295.177c0-4.636-3.759-8.395-8.395-8.395s-8.395,3.759-8.395,8.395v200.119
			c0,4.636,3.759,8.395,8.395,8.395h44.774c4.636,0,8.395-3.759,8.395-8.395v-335.82c39.359-15.606,80.235-23.49,122.227-23.49
			c8.435,0,16.988,0.34,25.422,1.011c4.621,0.364,8.667-3.08,9.034-7.703c0.367-4.622-3.082-8.667-7.703-9.034
			c-8.874-0.705-17.875-1.063-26.753-1.063c-69.732,0-136.442,20.598-198.439,61.248L18.804,98.589
			C53.34,75.456,89.766,57.51,127.174,45.206c40.562-13.343,82.481-20.107,124.591-20.107c83.974,0,167.297,27.386,241.398,79.27
			l-35.67,80.962c-45.001-30.821-93.421-51.152-144.071-60.475c-4.56-0.841-8.937,2.176-9.776,6.736
			c-0.84,4.56,2.176,8.937,6.736,9.776c24.238,4.462,47.956,11.58,71.011,21.284v332.644c0,4.636,3.759,8.395,8.395,8.395h44.774
			c4.636,0,8.395-3.759,8.395-8.395v-76.038c0-4.636-3.759-8.395-8.395-8.395s-8.395,3.759-8.395,8.395v67.642h-27.984V170.298
			c9.465,4.567,18.829,9.583,27.984,14.995v200.386c0,4.636,3.759,8.395,8.395,8.395s8.395-3.759,8.395-8.395V195.785
			c4.426,2.934,8.818,5.97,13.177,9.113c1.445,1.042,3.167,1.586,4.912,1.586c0.737,0,1.476-0.096,2.202-0.294
			c2.445-0.665,4.458-2.398,5.48-4.716l42.559-96.598C512.884,101.249,511.729,97,508.516,94.682z"/>
	</g>
</g>
<g>
</g>
<g>
</g>
<g>
</g>
<g>
</g>
<g>
</g>
<g>
</g>
<g>
</g>
<g>
</g>
<g>
</g>
<g>
</g>
<g>
</g>
<g>
</g>
<g>
</g>
<g>
</g>
<g>
</g>
</svg>
